{"title":"Kill Bill Vol 2 2004 720p Bluray Rip Dual Audio English Hindi  5","uid":11410148,"size":923591812,"categoryP":"video","categoryS":"hd___movies","magnet":"?xt=urn:btih:262441287be66ae9626e8cfdd127d724adc35f0d&amp;dn=Kill+Bill+Vol+2+2004+720p+Bluray+Rip+Dual+Audio+English+Hindi++5&amp;tr=udp%3A%2F%2Ftracker.openbittorrent.com%3A80&amp;tr=udp%3A%2F%2Fopen.demonii.com%3A1337&amp;tr=udp%3A%2F%2Ftracker.coppersurfer.tk%3A6969&amp;tr=udp%3A%2F%2Fexodus.desync.com%3A6969","seeders":11,"leechers":4,"uploader":"jatt13","files":1,"time":1415520978,"description":"General\nComplete name                  : D:Kill Bill Vol 2 2004 720p Bluray Rip Dual Audio English Hindi  5.1 CH GOPI SAHI PDR.m4v\nFormat                         : MPEG-4\nFormat profile                 : Base Media / Version 2\nCodec ID                       : mp42\nFile size                      : 881 MiB\nDuration                       : 2h 10mn\nOverall bit rate mode          : Variable\nOverall bit rate               : 946 Kbps\nMovie name                     : Kill Bill Vol 2 2004 720p BluRay Rip Dual Audio English Hindi GOPI SAHI\nEncoded date                   : UTC 2014-11-09 16:22:09\nTagged date                    : UTC 2014-11-09 19:24:24\nWriting application            : HandBrake 0.9.9 2013052900\n\nVideo\nID                             : 1\nFormat                         : AVC\nFormat/Info                    : Advanced Video Codec\nFormat profile                 : &lt;a class=&quot;__cf_email__&quot; href=&quot;/cdn-cgi/l/email-protection&quot; data-cfemail=&quot;ce83afa7a08e82fae0fe&quot;&gt;[email&amp;#160;protected]&lt;/a&gt;&lt;script cf-hash='f9e31' type=&quot;text/javascript&quot;&gt;\n/* &lt;![CDATA[ */!function(){try{var t=&quot;currentScript&quot;in document?document.currentScript:function(){for(var t=document.getElementsByTagName(&quot;script&quot;),e=t.length;e--;)if(t[e].getAttribute(&quot;cf-hash&quot;))return t[e]}();if(t&amp;&amp;t.previousSibling){var e,r,n,i,c=t.previousSibling,a=c.getAttribute(&quot;data-cfemail&quot;);if(a){for(e=&quot;&quot;,r=parseInt(a.substr(0,2),16),n=2;a.length-n;n+=2)i=parseInt(a.substr(n,2),16)^r,e+=String.fromCharCode(i);e=document.createTextNode(e),c.parentNode.replaceChild(e,c)}}}catch(u){}}();/* ]]&gt; */&lt;/script&gt;\nFormat settings, CABAC         : Yes\nFormat settings, ReFrames      : 4 frames\nCodec ID                       : avc1\nCodec ID/Info                  : Advanced Video Coding\nDuration                       : 2h 10mn\nBit rate mode                  : Variable\nBit rate                       : 700 Kbps\nWidth                          : 1 280 pixels\nHeight                         : 528 pixels\nDisplay aspect ratio           : 2.40:1\nFrame rate mode                : Variable\nFrame rate                     : 23.976 fps\nMinimum frame rate             : 23.256 fps\nMaximum frame rate             : 24.390 fps\nColor space                    : YUV\nChroma subsampling             : 4:2:0\nBit depth                      : 8 bits\nScan type                      : Progressive\nBits/(Pixel*Frame)             : 0.043\nStream size                    : 657 MiB (75%)\nWriting library                : x264 core 130 r2273 b3065e6\nTagged date                    : UTC 2014-11-09 19:24:24\nColor primaries                : BT.709\nTransfer characteristics       : BT.709\nMatrix coefficients            : BT.709\n\nAudio #1\nID                             : 2\nFormat                         : AAC\nFormat/Info                    : Advanced Audio Codec\nFormat profile                 : LC\nCodec ID                       : 40\nDuration                       : 2h 10mn\nBit rate mode                  : Variable\nBit rate                       : 64.2 Kbps\nMaximum bit rate               : 101 Kbps\nChannel(s)                     : 2 channels\nChannel positions              : Front: L R\nSampling rate                  : 48.0 KHz\nCompression mode               : Lossy\nDelay relative to video        : 83ms\nStream size                    : 59.7 MiB (7%)\nLanguage                       : English\nEncoded date                   : UTC 2014-11-09 16:22:09\nTagged date                    : UTC 2014-11-09 19:24:24\n\nAudio #2\nID                             : 3\nFormat                         : AAC\nFormat/Info                    : Advanced Audio Codec\nFormat profile                 : LC\nCodec ID                       : 40\nDuration                       : 2h 10mn\nBit rate mode                  : Variable\nBit rate                       : 169 Kbps\nMaximum bit rate               : 200 Kbps\nChannel(s)                     : 6 channels\nChannel positions              : Front: L C R, Side: L R, LFE\nSampling rate                  : 48.0 KHz\nCompression mode               : Lossy\nDelay relative to video        : 83ms\nStream size                    : 157 MiB (18%)\nLanguage                       : Hindi\nEncoded date                   : UTC 2014-11-09 16:22:09\nTagged date                    : UTC 2014-11-09 19:24:24 &lt;a href=&quot;\nhttp://imgchicken.com/images/93259296393715586253.jpg&quot; rel=&quot;nofollow&quot; target=&quot;_NEW&quot;&gt;\nhttp://imgchicken.com/images/93259296393715586253.jpg&lt;/a&gt; &lt;a href=&quot;\nhttp://imgchicken.com/images/83174528610293976717.jpg&quot; rel=&quot;nofollow&quot; target=&quot;_NEW&quot;&gt;\nhttp://imgchicken.com/images/83174528610293976717.jpg&lt;/a&gt; &lt;a href=&quot;\nhttp://imgchicken.com/images/62283690514036720113.jpg&quot; rel=&quot;nofollow&quot; target=&quot;_NEW&quot;&gt;\nhttp://imgchicken.com/images/62283690514036720113.jpg&lt;/a&gt;","torrent":{"xt":"urn:btih:262441287be66ae9626e8cfdd127d724adc35f0d","amp;dn":"Kill+Bill+Vol+2+2004+720p+Bluray+Rip+Dual+Audio+English+Hindi++5","amp;tr":["udp%3A%2F%2Ftracker.openbittorrent.com%3A80","udp%3A%2F%2Fopen.demonii.com%3A1337","udp%3A%2F%2Ftracker.coppersurfer.tk%3A6969","udp%3A%2F%2Fexodus.desync.com%3A6969"],"infoHash":"262441287be66ae9626e8cfdd127d724adc35f0d","infoHashBuffer":{"type":"Buffer","data":[38,36,65,40,123,230,106,233,98,110,140,253,209,39,215,36,173,195,95,13]},"announce":[],"urlList":[]}}